<svg xmlns="http://www.w3.org/2000/svg" viewBox="0 0 314.14 315.24"><defs><style>.cls-1{fill:#fff;}</style></defs><g id="Layer_2" data-name="Layer 2"><g id="Layer_1-2" data-name="Layer 1"><path class="cls-1" d="M272.55,83.17A40.11,40.11,0,0,0,302,71a40.13,40.13,0,0,0,12.13-29.46A40.11,40.11,0,0,0,302,12.13a41.6,41.6,0,0,0-58.72,0A39.75,39.75,0,0,0,231,41.58,39.77,39.77,0,0,0,243.29,71,40.25,40.25,0,0,0,272.55,83.17Z"/><path class="cls-1" d="M125.74,230q37.33,0,60.25-23.3T208.9,148V0H125.74Z"/><path class="cls-1" d="M96.62,0V233.22q0,35.43-22.9,58.72t-60.27,23.3V41.59H0V0H94.16V0Z"/></g></g></svg>