<svg xmlns="http://www.w3.org/2000/svg" viewBox="0 0 2166.42 315.24"><defs><style>.cls-1{fill:#fff;}</style></defs><g id="Layer_2" data-name="Layer 2"><g id="Layer_1-2" data-name="Layer 1"><path class="cls-1" d="M272.55,83.17A40.11,40.11,0,0,0,302,71a40.13,40.13,0,0,0,12.13-29.46A40.11,40.11,0,0,0,302,12.13a41.6,41.6,0,0,0-58.72,0A39.75,39.75,0,0,0,231,41.58,39.77,39.77,0,0,0,243.29,71,40.25,40.25,0,0,0,272.55,83.17Z"/><path class="cls-1" d="M125.74,230q37.33,0,60.25-23.3T208.9,148V0H125.74Z"/><path class="cls-1" d="M96.62,0V233.22q0,35.43-22.9,58.72t-60.27,23.3V41.59H0V0H94.16V0Z"/><path class="cls-1" d="M449.06,201a40.41,40.41,0,0,1-15.79-12.23l14.58-17.5q9.22,12.48,21.06,12.48,16,0,16-18.79V111H445.09V89.91H511v73.54q0,20.9-10.37,31.34T470.2,205.24A51.41,51.41,0,0,1,449.06,201Z"/><path class="cls-1" d="M564.87,197.63a56.62,56.62,0,0,1-22.19-21,57.3,57.3,0,0,1-8-30.05,57.29,57.29,0,0,1,8-30,56.62,56.62,0,0,1,22.19-21,70.2,70.2,0,0,1,63.58,0,57.84,57.84,0,0,1,0,102.05,70.2,70.2,0,0,1-63.58,0Zm50-19.36a33.2,33.2,0,0,0,12.71-12.88,40.52,40.52,0,0,0,0-37.58,33.17,33.17,0,0,0-12.71-12.87,37.94,37.94,0,0,0-36.29,0,33,33,0,0,0-12.71,12.87,40.52,40.52,0,0,0,0,37.58,33.06,33.06,0,0,0,12.71,12.88,37.94,37.94,0,0,0,36.29,0Z"/><path class="cls-1" d="M787.35,89.91V203.3H761.11V156.81H709.6V203.3H683.36V89.91H709.6v44.71h51.51V89.91Z"/><path class="cls-1" d="M923.09,89.91V203.3H901.55L845,134.46V203.3H819.1V89.91h21.7l56.37,68.84V89.91Z"/><path class="cls-1" d="M966.09,201.6q-12.55-3.65-20.16-9.48l8.91-19.76a60.48,60.48,0,0,0,17.33,8.58,65.06,65.06,0,0,0,20.08,3.24q11.18,0,16.53-3.32t5.34-8.83a8.43,8.43,0,0,0-3.16-6.72,23.87,23.87,0,0,0-8.1-4.29q-4.93-1.62-13.36-3.56a184.73,184.73,0,0,1-21.22-6.16,34.38,34.38,0,0,1-14.17-9.88q-5.93-6.81-5.91-18.14a31.59,31.59,0,0,1,5.34-17.9q5.34-8,16.12-12.72T996,88a87.08,87.08,0,0,1,21.22,2.59A62.7,62.7,0,0,1,1035.34,98l-8.1,19.92q-15.72-8.9-31.42-8.91-11,0-16.28,3.57a10.88,10.88,0,0,0-5.27,9.39q0,5.83,6.08,8.67t18.54,5.59a184.36,184.36,0,0,1,21.22,6.15,35.16,35.16,0,0,1,14.18,9.72q5.91,6.64,5.91,18a31,31,0,0,1-5.43,17.74q-5.43,8-16.28,12.71t-26.4,4.7A93.16,93.16,0,0,1,966.09,201.6Z"/><path class="cls-1" d="M1086.12,197.63a56.49,56.49,0,0,1-22.19-21,57.22,57.22,0,0,1-8-30.05,57.21,57.21,0,0,1,8-30,56.49,56.49,0,0,1,22.19-21,70.18,70.18,0,0,1,63.57,0,57.84,57.84,0,0,1,0,102.05,70.18,70.18,0,0,1-63.57,0Zm50-19.36a33.06,33.06,0,0,0,12.71-12.88,40.52,40.52,0,0,0,0-37.58,33,33,0,0,0-12.71-12.87,37.94,37.94,0,0,0-36.29,0,33.1,33.1,0,0,0-12.71,12.87,40.52,40.52,0,0,0,0,37.58,33.13,33.13,0,0,0,12.71,12.88,37.94,37.94,0,0,0,36.29,0Z"/><path class="cls-1" d="M1308.59,89.91V203.3h-21.54l-56.53-68.84V203.3H1204.6V89.91h21.71l56.37,68.84V89.91Z"/><path class="cls-1" d="M1473.49,203.3l-25.92-36.45a83.16,83.16,0,0,1-9.07.49h-30.45v36h-12V89.91h42.44q21.7,0,34,10.37t12.31,28.51q0,13.28-6.72,22.43t-19.19,13.2l27.7,38.88Zm-9.56-53.62q8.91-7.44,8.91-20.89,0-13.77-8.91-21.14t-25.76-7.37h-30.12v56.85h30.12Q1455,157.13,1463.93,149.68Z"/><path class="cls-1" d="M1598.21,192.93V203.3H1518V89.91h77.75v10.37H1530v40.33h58.64v10.21H1530v42.11Z"/><path class="cls-1" d="M1723.9,89.91,1673.69,203.3h-11.83L1611.65,89.91h13L1668,188.39l43.73-98.48Z"/><path class="cls-1" d="M1745.12,89.91h12V203.3h-12Z"/><path class="cls-1" d="M1879.07,192.93V203.3H1798.9V89.91h77.74v10.37h-65.76v40.33h58.64v10.21h-58.64v42.11Z"/><path class="cls-1" d="M2066.16,89.91,2027.93,203.3H2015.3l-33.21-96.7-33.36,96.7h-12.48L1898,89.91h12.31l32.72,97.51,33.85-97.51h11.18l33.36,98,33.21-98Z"/><path class="cls-1" d="M2099.93,200.22q-11.58-4-17.9-10.69l4.7-9.23a45,45,0,0,0,16.36,10,59.7,59.7,0,0,0,21.06,3.8q15.22,0,22.83-5.58t7.62-14.5q0-6.81-4.13-10.85a28,28,0,0,0-10.13-6.24,162.91,162.91,0,0,0-16.68-4.78,175.16,175.16,0,0,1-20.41-6.24,33.35,33.35,0,0,1-13-9.15q-5.43-6.15-5.42-16.68a28.31,28.31,0,0,1,4.53-15.63q4.53-7.05,13.93-11.26t23.33-4.21a68.71,68.71,0,0,1,19,2.67A54.57,54.57,0,0,1,2161.72,99l-4,9.56a56,56,0,0,0-15.23-7.05,57,57,0,0,0-15.87-2.35q-14.91,0-22.44,5.75a17.86,17.86,0,0,0-7.53,14.83q0,6.8,4.13,10.93a27.1,27.1,0,0,0,10.37,6.32q6.22,2.17,16.76,4.77a169.49,169.49,0,0,1,20.17,6.08,33.16,33.16,0,0,1,13,9.07q5.34,6.08,5.34,16.44a28,28,0,0,1-4.61,15.63q-4.62,7-14.18,11.18t-23.48,4.13A72.82,72.82,0,0,1,2099.93,200.22Z"/></g></g></svg>